<?xml version="1.0" standalone="no"?>
<!DOCTYPE svg PUBLIC "-//W3C//DTD SVG 20010904//EN"
 "http://www.w3.org/TR/2001/REC-SVG-20010904/DTD/svg10.dtd">
<svg version="1.0" xmlns="http://www.w3.org/2000/svg"
 width="992.000000pt" height="1056.000000pt" viewBox="0 0 992.000000 1056.000000"
 preserveAspectRatio="xMidYMid meet">

<g transform="translate(0.000000,1056.000000) scale(0.100000,-0.100000)"
fill="#000000" stroke="none">
<path d="M4900 7856 c-28 -15 -332 -127 -395 -146 -22 -6 -60 -21 -85 -32 -72
-33 -259 -95 -253 -84 4 5 -1 7 -11 3 -10 -4 -24 -7 -32 -7 -9 0 -12 -5 -8
-12 4 -7 3 -8 -4 -4 -21 13 -293 -82 -694 -243 -179 -72 -247 -104 -260 -124
-3 -6 -15 -11 -26 -12 -11 -1 -26 -6 -34 -12 -7 -6 -33 -18 -58 -26 -25 -8
-56 -20 -70 -25 -116 -49 -224 -82 -230 -72 -5 9 -39 1 -116 -25 -60 -20 -118
-42 -128 -47 -18 -10 -19 -21 -12 -272 8 -306 38 -608 87 -865 11 -57 19 -105
17 -107 -2 -2 -32 32 -67 76 -120 149 -288 300 -426 382 -64 38 -180 98 -191
98 -3 0 30 -37 75 -82 131 -135 260 -308 358 -483 65 -114 181 -360 217 -460
20 -55 41 -109 45 -121 5 -12 33 -35 63 -51 94 -54 155 -111 173 -161 8 -25
15 -46 15 -48 0 -1 -8 -4 -17 -7 -10 -4 -28 -14 -40 -22 -20 -16 -21 -15 -16
4 8 32 -15 78 -59 115 -50 43 -71 38 -108 -28 -43 -74 -47 -102 -20 -138 l22
-30 -23 8 c-13 4 -34 8 -46 7 -17 -1 -22 6 -25 32 -2 19 0 31 5 28 15 -9 38
20 69 85 36 76 33 96 -22 146 -40 36 -84 47 -93 24 -3 -7 -6 -1 -6 13 -2 52
-106 119 -136 88 -20 -22 -48 -118 -41 -142 4 -12 28 -39 53 -61 l47 -38 18
22 18 22 0 -35 c0 -20 7 -42 15 -51 21 -21 19 -29 -6 -15 -12 6 -32 9 -45 6
-20 -4 -23 -1 -18 18 4 18 -4 30 -39 59 -46 37 -68 45 -99 32 -13 -6 -16 -3
-12 11 6 23 -2 33 -55 71 -36 27 -47 30 -65 20 -11 -6 -25 -16 -29 -22 -5 -6
-6 -2 -2 9 18 50 17 54 -26 84 -23 17 -49 31 -57 31 -25 0 -92 -75 -92 -103 0
-31 72 -94 101 -89 13 2 19 -3 19 -15 0 -22 79 -103 101 -103 8 0 21 6 28 13
10 10 11 7 6 -16 -6 -23 -1 -34 39 -73 34 -34 51 -45 66 -41 14 3 20 1 17 -6
-2 -7 -1 -19 4 -28 6 -13 3 -15 -22 -11 -20 3 -29 10 -29 22 0 10 -21 37 -47
60 -39 34 -54 41 -80 38 -26 -3 -30 -1 -23 12 18 33 -67 104 -113 94 -26 -5
-28 -4 -18 14 15 29 16 29 -31 62 -23 17 -54 30 -71 30 -22 0 -27 3 -19 13 20
23 -53 87 -100 87 -26 0 -28 2 -18 21 10 17 6 25 -25 55 -42 39 -71 43 -109
13 -34 -27 -33 -41 9 -88 27 -30 41 -38 58 -33 20 5 21 4 8 -12 -12 -15 -12
-20 6 -44 11 -15 35 -37 53 -49 18 -13 40 -37 49 -55 9 -18 32 -43 51 -56 19
-13 38 -31 41 -40 9 -23 68 -80 91 -88 10 -3 25 -21 34 -40 10 -20 41 -54 70
-76 29 -22 56 -48 59 -58 7 -21 89 -100 105 -100 5 0 10 -6 10 -14 0 -8 27
-43 60 -78 33 -34 62 -70 65 -79 3 -9 30 -40 60 -70 30 -30 55 -61 55 -69 1
-8 13 -30 29 -48 25 -29 35 -33 112 -42 46 -6 99 -15 117 -21 18 -6 40 -8 48
-5 8 3 13 2 10 -2 -3 -4 37 -23 87 -42 51 -18 126 -50 167 -70 77 -37 256
-150 321 -201 43 -34 49 -35 49 -11 0 18 46 45 61 36 5 -3 9 -20 9 -37 0 -33
48 -115 98 -169 23 -25 26 -26 39 -10 12 16 14 16 28 -2 8 -11 13 -27 10 -37
-4 -12 42 -61 162 -174 321 -302 479 -421 691 -521 67 -31 122 -60 122 -65 0
-18 -118 -31 -225 -26 -316 16 -568 159 -977 554 -276 267 -408 377 -528 438
-53 27 -89 54 -74 55 20 0 180 -87 274 -149 130 -87 176 -126 425 -361 231
-219 402 -341 571 -410 94 -37 248 -73 268 -62 4 2 -7 14 -25 25 -167 98 -332
234 -584 479 -267 259 -402 372 -590 493 -294 190 -624 272 -864 213 -133 -32
-260 -122 -308 -220 -34 -67 -47 -172 -34 -281 12 -113 41 -241 51 -230 4 4
13 37 20 73 38 204 125 340 258 403 58 27 70 29 145 25 63 -4 100 -12 160 -37
137 -58 231 -135 512 -419 372 -377 469 -457 666 -551 188 -90 391 -131 575
-116 73 6 90 4 178 -24 123 -40 232 -55 316 -46 36 4 160 8 275 9 208 1 211 2
301 33 86 30 99 31 235 31 328 0 541 79 829 309 85 67 156 137 430 417 214
218 275 269 407 335 99 50 141 61 228 61 160 0 286 -113 353 -317 11 -34 23
-86 27 -117 12 -96 26 -80 60 67 19 88 20 248 0 314 -53 179 -219 288 -457
300 -130 7 -224 -7 -373 -54 -273 -87 -526 -256 -860 -573 -408 -388 -543
-503 -652 -559 -24 -12 -43 -26 -43 -31 0 -12 -6 -12 66 1 96 17 194 49 279
92 155 77 262 160 543 422 222 206 380 326 529 402 62 31 115 55 118 52 2 -3
-30 -25 -72 -49 -147 -83 -235 -157 -533 -441 -342 -326 -541 -458 -790 -521
-90 -23 -139 -29 -225 -30 -103 -1 -215 15 -215 31 0 11 109 59 150 67 126 23
374 213 718 546 l123 120 -6 39 c-5 31 -4 39 8 39 8 0 21 -10 30 -22 8 -13 17
-21 19 -18 17 19 110 144 118 160 7 14 6 23 -5 34 -19 19 -19 30 0 46 12 10
19 10 27 2 7 -7 20 -12 30 -12 13 0 18 -8 18 -25 0 -14 4 -25 9 -25 5 0 48 28
96 63 47 34 94 67 103 72 9 6 44 26 77 47 56 34 211 104 315 142 55 20 156 42
232 51 49 5 60 11 82 40 14 18 26 40 26 48 0 7 29 43 65 79 44 43 63 70 60 81
-4 10 1 17 15 22 11 4 42 32 68 63 26 31 71 79 100 106 28 27 52 57 52 68 0
10 10 22 24 28 37 14 106 80 106 101 0 11 4 19 9 19 4 0 29 16 55 35 32 25 46
43 46 59 0 17 7 26 24 30 27 7 86 69 86 91 0 8 6 15 13 15 28 0 104 90 92 110
-3 5 0 10 8 10 17 0 87 75 87 93 0 7 -6 19 -12 26 -11 10 -10 11 3 6 12 -4 26
7 48 36 17 24 31 49 31 56 0 19 -47 46 -70 40 -16 -4 -20 0 -20 22 0 52 -44
72 -109 50 -26 -9 -31 -16 -31 -43 0 -22 8 -40 25 -56 22 -20 28 -22 51 -11
30 13 44 7 26 -11 -17 -17 -15 -39 4 -52 13 -10 9 -12 -21 -12 -30 0 -44 -7
-72 -38 -28 -30 -32 -40 -22 -52 9 -12 6 -14 -19 -14 -41 0 -105 -54 -97 -81
5 -16 1 -19 -22 -19 -47 0 -106 -50 -99 -82 3 -13 -2 -18 -16 -18 -26 0 -54
-16 -95 -53 -25 -23 -30 -33 -22 -44 9 -10 6 -13 -14 -13 -28 0 -137 -83 -137
-104 0 -8 -12 -16 -26 -19 -19 -3 -24 -1 -20 10 3 8 6 19 6 24 0 5 9 9 21 9
11 0 41 20 65 45 35 34 44 50 39 65 -6 18 -3 20 19 14 20 -5 34 2 73 39 44 42
46 47 35 71 l-12 26 25 -16 c28 -18 31 -17 92 39 l32 30 -18 36 c-42 80 -86
93 -151 41 -30 -24 -39 -37 -35 -51 6 -17 3 -19 -18 -14 -42 11 -137 -55 -124
-87 3 -10 -4 -13 -27 -10 -26 3 -41 -4 -79 -39 -35 -31 -46 -47 -41 -61 5 -16
2 -18 -19 -13 -14 4 -28 2 -31 -4 -4 -6 -12 -11 -17 -11 -6 0 -1 14 11 30 16
22 20 38 15 57 l-6 27 18 -22 18 -22 50 38 c58 44 64 63 39 135 -23 66 -31 77
-60 77 -31 0 -104 -70 -104 -100 0 -19 -3 -21 -12 -12 -22 22 -54 13 -96 -26
-30 -28 -42 -47 -42 -67 0 -22 -3 -26 -17 -20 -45 18 -53 16 -97 -29 -34 -34
-46 -53 -46 -76 0 -35 -2 -36 -34 -14 -16 10 -26 12 -31 5 -16 -27 -23 -7 -11
34 16 50 36 71 161 159 l90 64 39 104 c73 193 164 382 255 533 73 120 217 320
265 368 30 30 36 58 9 36 -16 -13 -17 -12 -4 4 8 10 20 16 26 13 15 -6 82 61
71 71 -11 11 -121 -49 -227 -125 -141 -100 -221 -175 -339 -317 -85 -102 -107
-122 -96 -89 14 47 76 441 86 551 13 150 27 524 22 615 l-4 67 -87 35 c-80 31
-270 88 -288 85 -5 -1 -17 -1 -28 0 -17 1 -18 3 -5 12 12 8 11 9 -5 5 -27 -8
-351 112 -365 134 -8 13 -121 60 -130 55 -5 -3 -11 -1 -15 5 -15 25 -400 176
-778 306 -127 44 -168 54 -112 29 17 -8 23 -14 14 -15 -22 0 -109 30 -109 39
0 4 -8 7 -17 8 -20 1 -182 56 -283 96 -162 63 -257 97 -270 97 -8 -1 -26 -7
-40 -14z m95 -36 c-3 -5 -11 -10 -16 -10 -6 0 -7 5 -4 10 3 6 11 10 16 10 6 0
7 -4 4 -10z m-62 -20 c-3 -11 -7 -20 -9 -20 -2 0 -4 9 -4 20 0 11 4 20 9 20 5
0 7 -9 4 -20z m-83 -21 c0 -22 5 -32 20 -36 11 -3 20 -9 20 -14 0 -15 -27 -22
-55 -15 -24 6 -25 10 -19 44 8 43 12 52 25 52 5 0 9 -14 9 -31z m238 -22 c4
-46 27 -59 48 -28 8 11 23 21 32 21 16 -1 16 -1 0 -11 -22 -13 -24 -72 -3 -92
8 -9 36 -23 62 -33 27 -9 84 -32 127 -50 44 -19 85 -34 91 -34 6 0 20 -7 31
-15 17 -13 14 -13 -26 -1 -25 8 -126 44 -225 81 -294 110 -258 103 -361 67
-49 -16 -152 -53 -229 -82 -279 -103 -360 -131 -350 -122 6 5 48 24 95 42 204
78 267 102 290 112 14 6 72 27 130 47 58 21 114 42 124 48 21 12 36 8 139 -31
37 -14 67 -22 67 -18 0 4 -12 19 -25 35 -19 21 -30 26 -49 21 -25 -6 -66 10
-66 25 0 5 10 7 21 4 25 -7 51 20 42 44 -4 11 0 14 13 11 14 -2 20 -13 22 -41z
m-293 23 c-3 -5 -14 -10 -23 -10 -15 0 -15 2 -2 10 20 13 33 13 25 0z m192
-12 c-3 -8 -6 -5 -6 6 -1 11 2 17 5 13 3 -3 4 -12 1 -19z m-226 -19 c9 -11 21
-20 26 -19 4 0 9 -11 11 -24 3 -21 -3 -28 -34 -41 -50 -21 -66 -19 -99 9 -24
21 -27 27 -16 40 15 18 47 21 56 7 3 -5 1 -12 -4 -15 -5 -4 -8 -14 -7 -24 4
-24 42 -28 54 -5 11 20 4 73 -9 73 -5 0 -9 5 -9 10 0 16 11 12 31 -11z m-127
-31 c-10 -16 -10 -50 -1 -65 11 -17 -3 -43 -19 -36 -8 3 -14 18 -14 34 0 19
-5 29 -15 29 -8 0 -15 5 -15 11 0 6 7 9 15 5 9 -3 19 3 25 14 6 11 15 20 21
20 6 0 7 -6 3 -12z m620 -35 c-14 -22 -65 -36 -79 -21 -7 8 -5 9 7 5 12 -4 22
1 30 16 12 21 14 26 17 44 0 4 9 -1 18 -10 13 -13 15 -21 7 -34z m44 5 c2 -18
9 -44 16 -59 14 -27 6 -33 -22 -15 -8 4 -26 12 -40 16 l-27 8 29 1 c27 1 28 3
25 45 -3 27 0 42 6 39 6 -2 12 -18 13 -35z m-99 15 c0 -11 -3 -13 -6 -5 -2 6
-9 10 -14 6 -5 -3 -9 0 -9 5 0 6 7 11 15 11 8 0 15 -8 14 -17z m138 -20 c-9
-9 -19 -14 -23 -11 -10 10 6 28 24 28 15 0 15 -1 -1 -17z m-797 -13 c13 -8 13
-10 -2 -10 -9 0 -20 5 -23 10 -8 13 5 13 25 0z m-84 -34 c-5 -19 0 -29 19 -44
28 -22 17 -39 -14 -22 -28 14 -36 13 -21 -5 9 -10 9 -15 1 -15 -11 0 -16 15
-11 35 1 6 4 21 7 34 5 27 11 41 20 41 3 0 2 -11 -1 -24z m-41 -14 c-3 -3 -11
0 -18 7 -9 10 -8 11 6 5 10 -3 15 -9 12 -12z m161 -5 c8 3 14 0 14 -6 0 -12
-38 -15 -64 -5 -9 3 -16 12 -16 19 0 12 5 11 26 0 15 -7 33 -11 40 -8z m824
15 c0 -5 -8 -18 -18 -30 -13 -14 -22 -18 -33 -11 -11 7 -10 10 9 15 12 4 22
11 22 16 0 6 -7 8 -15 4 -8 -3 -15 -1 -15 4 0 6 11 10 25 10 14 0 25 -4 25 -8z
m74 -53 c-6 -10 -44 -13 -44 -3 0 3 8 16 18 29 16 22 17 22 25 3 4 -11 5 -24
1 -29z m-1094 -19 c0 -18 -23 -33 -34 -23 -3 4 -6 14 -6 24 0 9 -8 20 -17 24
-17 7 -16 8 2 15 24 9 55 -14 55 -40z m1197 29 c-11 -6 -16 -17 -12 -28 3 -12
0 -18 -10 -18 -18 0 -19 11 -5 38 6 10 18 19 28 19 16 -1 16 -1 -1 -11z m58 1
c3 -6 -1 -7 -9 -4 -18 7 -21 14 -7 14 6 0 13 -4 16 -10z m-1353 -44 c5 -24 -7
-46 -23 -46 -7 0 -6 21 0 63 3 17 19 5 23 -17z m1378 10 c0 -2 -7 -7 -16 -10
-8 -3 -12 -2 -9 4 6 10 25 14 25 6z m-5 -37 c11 -17 -1 -21 -15 -4 -8 9 -8 15
-2 15 6 0 14 -5 17 -11z m-1457 -27 c2 -6 -6 -15 -16 -21 -17 -9 -20 -7 -24
12 -4 19 0 23 16 22 11 -1 22 -7 24 -13z m1337 -2 c8 -13 -5 -13 -25 0 -13 8
-13 10 2 10 9 0 20 -4 23 -10z m-1280 -50 c-11 -5 -27 -9 -35 -9 -9 0 -8 4 5
9 11 5 27 9 35 9 9 0 8 -4 -5 -9z m-745 -180 c0 -5 -2 -10 -4 -10 -3 0 -8 5
-11 10 -3 6 -1 10 4 10 6 0 11 -4 11 -10z m-80 -30 c0 -5 -2 -10 -4 -10 -3 0
-8 5 -11 10 -3 6 -1 10 4 10 6 0 11 -4 11 -10z m3000 -7 c0 -9 6 -24 13 -33 6
-9 2 -5 -10 8 -24 25 -30 42 -13 42 6 0 10 -8 10 -17z m190 -13 c-8 -5 -16
-14 -16 -20 -1 -5 -3 -12 -4 -15 -1 -3 -3 -11 -4 -17 0 -7 -17 -14 -36 -15
-29 -2 -32 -1 -13 7 12 5 27 19 34 32 13 25 28 38 44 38 6 0 3 -5 -5 -10z
m-3280 -19 c7 -13 7 -22 0 -26 -5 -3 -10 3 -10 14 0 10 -6 22 -12 24 -10 4
-10 6 -1 6 7 1 17 -8 23 -18z m104 4 c-4 -8 -10 -12 -15 -9 -14 8 -10 24 6 24
9 0 12 -6 9 -15z m3066 -5 c0 -21 -15 -27 -25 -10 -3 6 -1 10 5 10 6 0 8 5 5
10 -3 6 -1 10 4 10 6 0 11 -9 11 -20z m-3248 -70 c-3 -3 -7 1 -10 9 -2 7 -13
21 -23 29 -23 20 -25 34 -4 26 9 -4 15 0 16 7 0 8 6 -4 13 -26 7 -22 10 -42 8
-45z m3448 24 c0 -7 5 -25 10 -40 l11 -28 20 33 c24 39 33 34 34 -17 0 -33 3
-37 27 -40 19 -2 31 3 40 17 13 21 38 29 38 12 0 -38 -86 -55 -127 -26 -12 9
-26 15 -30 14 -20 -3 -34 2 -28 11 3 5 -1 22 -9 37 -11 20 -15 23 -16 11 0
-19 -30 -26 -30 -7 0 6 8 24 17 40 16 27 19 28 30 12 7 -9 13 -22 13 -29z
m-3553 19 c-3 -5 -1 -19 4 -32 8 -19 12 -21 24 -11 11 9 15 10 15 1 0 -24 -22
-52 -36 -47 -8 3 -14 1 -14 -4 0 -5 -16 -14 -36 -19 -40 -11 -74 0 -74 23 0 8
-7 19 -15 26 -19 15 -14 23 9 14 9 -3 16 -13 16 -21 0 -10 6 -13 15 -9 9 3 18
-1 21 -9 4 -8 14 -15 24 -15 31 0 41 57 15 84 -13 13 -13 15 7 19 13 2 24 5
26 6 2 0 1 -2 -1 -6z m-72 -53 c-3 -5 -11 -10 -16 -10 -6 0 -7 5 -4 10 3 6 11
10 16 10 6 0 7 -4 4 -10z m3515 -16 c58 -20 75 -23 81 -12 7 10 9 9 9 -3 0
-10 38 -31 115 -64 63 -26 114 -49 112 -51 -7 -8 -315 108 -376 141 -38 21
-23 18 59 -11z m290 22 c0 -3 -4 -8 -10 -11 -5 -3 -10 -1 -10 4 0 6 5 11 10
11 6 0 10 -2 10 -4z m-3900 -30 c0 -51 -23 -74 -35 -36 -7 21 10 60 25 60 6 0
10 -11 10 -24z m296 -8 c-19 -10 -146 -60 -431 -168 -77 -29 -148 -62 -157
-72 -14 -16 -18 -17 -18 -5 0 25 26 44 82 62 29 9 62 20 73 25 68 27 115 45
240 91 77 28 156 58 175 65 43 16 62 17 36 2z m3684 -14 c0 -8 -4 -12 -10 -9
-5 3 -10 1 -10 -4 0 -16 26 -13 40 4 14 17 30 20 30 5 0 -5 -6 -10 -14 -10 -8
0 -22 -10 -30 -22 -11 -16 -16 -18 -17 -8 0 11 -2 11 -6 3 -2 -7 -8 -13 -12
-13 -8 0 -5 38 5 68 5 17 24 6 24 -14z m-4056 -9 c8 -8 19 -15 25 -15 13 0 14
-10 1 -30 -8 -13 -10 -12 -10 3 0 10 -4 15 -10 12 -5 -3 -10 -2 -10 4 0 6 -12
17 -27 25 -26 14 -26 15 -6 16 12 0 28 -7 37 -15z m114 -28 c3 -12 -4 -17 -22
-17 -24 0 -25 2 -14 20 15 23 31 21 36 -3z m-228 9 c0 -3 -4 -8 -10 -11 -5 -3
-10 -1 -10 4 0 6 5 11 10 11 6 0 10 -2 10 -4z m60 -15 c13 -25 13 -51 0 -51
-5 0 -10 9 -10 19 0 11 -4 23 -10 26 -5 3 -10 10 -10 16 0 16 19 10 30 -10z
m4203 -11 c-3 -11 -12 -20 -19 -20 -18 0 -18 5 2 24 20 21 23 20 17 -4z m-148
0 c3 -5 1 -10 -4 -10 -6 0 -11 5 -11 10 0 6 2 10 4 10 3 0 8 -4 11 -10z m92
-22 c-3 -7 -5 -2 -5 12 0 14 2 19 5 13 2 -7 2 -19 0 -25z m-4090 -10 c-3 -7
-5 -2 -5 12 0 14 2 19 5 13 2 -7 2 -19 0 -25z m-171 12 c7 0 15 -12 18 -26 5
-18 12 -24 22 -20 10 4 14 1 12 -6 -9 -27 -78 -11 -78 18 0 4 -8 16 -17 27
-17 20 -17 20 7 14 14 -4 30 -7 36 -7z m4429 -10 c-3 -5 -11 -10 -16 -10 -6 0
-7 5 -4 10 3 6 11 10 16 10 6 0 7 -4 4 -10z m-4340 -10 c3 -5 1 -10 -4 -10 -6
0 -11 5 -11 10 0 6 2 10 4 10 3 0 8 -4 11 -10z m-146 -40 l32 -40 -36 0 c-25
0 -35 4 -33 12 3 7 -5 20 -16 30 -19 15 -19 17 -3 18 9 0 17 5 17 10 0 16 5
12 39 -30z m4357 -7 c51 -21 91 -39 89 -42 -4 -3 -185 66 -194 75 -11 11 21 1
105 -33z m109 10 c-21 -14 -45 -17 -45 -5 0 10 43 29 54 24 5 -3 1 -11 -9 -19z
m-2710 -18 c441 0 525 -3 618 -18 144 -24 263 -59 373 -111 121 -57 185 -100
272 -181 232 -215 341 -492 329 -830 -4 -121 -9 -153 -36 -236 -30 -94 -84
-190 -144 -258 l-30 -35 6 30 c28 149 29 170 17 238 -7 38 -27 97 -45 132 -24
46 -35 82 -39 136 -22 241 -88 432 -199 580 -185 246 -442 391 -776 438 -97
14 -355 14 -451 0 -124 -17 -112 87 -108 -939 5 -1005 2 -973 78 -1043 45 -41
84 -52 235 -71 l100 -13 3 -52 c2 -40 -1 -54 -13 -58 -8 -4 -113 2 -233 11
-161 13 -276 16 -445 12 l-228 -5 3 26 c3 24 9 27 69 37 88 14 112 32 132 97
34 109 38 253 35 1103 -3 782 -4 832 -22 872 -26 62 -70 85 -168 91 -82 5 -97
14 -84 48 6 15 19 16 124 8 64 -5 347 -9 627 -9z m2793 -7 c-3 -7 -15 -14 -29
-16 -23 -2 -23 -2 -5 13 24 18 39 20 34 3z m-4618 -7 c0 -5 3 -18 6 -28 5 -17
5 -17 -9 0 -8 9 -19 17 -26 17 -6 0 -11 5 -11 10 0 6 9 10 20 10 11 0 20 -4
20 -9z m26 -117 c-3 -8 -16 -13 -28 -13 -18 1 -19 2 -5 6 10 3 17 12 16 21 -3
31 1 37 12 19 6 -10 8 -25 5 -33z m-43 9 c-7 -2 -19 -2 -25 0 -7 3 -2 5 12 5
14 0 19 -2 13 -5z m44 -59 c-3 -3 -12 -4 -19 -1 -8 3 -5 6 6 6 11 1 17 -2 13
-5z m-22 -45 c11 -17 -1 -21 -15 -4 -8 9 -8 15 -2 15 6 0 14 -5 17 -11z m2215
-264 c107 0 237 3 288 7 l92 8 0 -30 c0 -29 -1 -30 -51 -30 -129 0 -171 -40
-195 -186 -7 -49 -14 -122 -14 -161 l0 -73 -124 0 -124 0 -4 153 c-5 224 -24
252 -185 264 -67 5 -73 8 -73 28 0 12 3 25 8 29 4 5 48 4 97 0 50 -5 178 -9
285 -9z m3050 -200 c-7 -9 -15 -13 -19 -10 -3 3 1 10 9 15 21 14 24 12 10 -5z
m-32 -72 c-5 -7 -14 -10 -19 -7 -5 3 -6 -2 -3 -10 4 -10 1 -16 -9 -16 -9 0
-17 -6 -20 -12 -2 -7 -2 1 1 17 2 17 11 34 18 38 8 5 12 13 8 18 -3 6 3 5 14
-2 16 -10 18 -17 10 -26z m-70 -23 c-7 -10 -14 -18 -15 -16 -6 6 9 36 18 36 5
0 4 -9 -3 -20z m-2768 -230 c348 -9 413 -17 514 -65 31 -15 80 -49 110 -76
103 -94 146 -192 146 -333 -1 -143 -31 -223 -118 -318 -43 -46 -75 -69 -146
-102 -119 -57 -181 -68 -389 -65 l-172 2 -3 -205 -2 -205 -35 -6 c-82 -13
-130 -79 -169 -230 -14 -53 -28 -102 -31 -107 -9 -15 -26 -12 -47 7 -17 15
-20 15 -39 -5 -16 -18 -31 -22 -85 -22 l-65 0 3 28 c3 25 7 28 62 34 113 14
136 49 146 223 11 208 12 1260 1 1303 -20 72 -99 117 -194 110 -42 -3 -54 8
-43 39 6 14 20 15 119 9 61 -4 258 -11 437 -16z m2160 -200 c0 -5 -4 -10 -10
-10 -5 0 -10 5 -10 10 0 6 5 10 10 10 6 0 10 -4 10 -10z m10 -84 c0 -3 -4 -8
-10 -11 -5 -3 -10 -1 -10 4 0 6 5 11 10 11 6 0 10 -2 10 -4z m49 -48 c-5 -18
-16 -66 -25 -107 -8 -40 -19 -81 -23 -90 -11 -21 -26 -70 -46 -151 -25 -100
-61 -211 -88 -271 -13 -30 -39 -88 -57 -129 -74 -171 -95 -216 -115 -245 -27
-41 -39 -60 -76 -130 -34 -65 -50 -88 -56 -82 -4 5 53 115 71 137 19 23 110
239 104 246 -3 3 -22 6 -42 7 -39 2 -44 10 -21 33 13 14 18 13 44 -5 15 -11
31 -17 35 -13 9 8 66 131 66 141 0 4 27 81 61 172 34 90 68 187 75 214 8 28
19 59 24 70 8 18 21 63 54 193 6 23 14 42 18 42 3 0 2 -15 -3 -32z m-4528
-114 c5 -15 8 -29 5 -31 -2 -2 -8 10 -14 26 -13 38 -5 41 9 5z m5617 3 c4 -22
-24 -46 -56 -47 -28 0 -51 48 -30 62 23 15 82 5 86 -15z m-1222 -29 c-15 -10
-16 -6 -9 22 6 22 7 22 13 4 4 -10 2 -22 -4 -26z m-4326 0 c-13 -5 -28 -7 -34
-4 -6 2 -3 5 7 5 9 1 17 5 17 11 0 5 7 7 17 3 14 -5 12 -8 -7 -15z m4374 7 c3
-8 1 -15 -3 -15 -5 0 -11 7 -15 15 -3 8 -1 15 3 15 5 0 11 -7 15 -15z m-117
-47 c-3 -8 -6 -5 -6 6 -1 11 2 17 5 13 3 -3 4 -12 1 -19z m-4288 -98 c-2 -24
-27 62 -27 90 0 15 5 5 14 -25 7 -27 13 -57 13 -65z m5661 82 c0 -25 -35 -56
-55 -48 -25 9 -30 37 -10 52 28 21 65 18 65 -4z m-5615 -11 c-9 -16 15 -24 31
-10 12 10 13 9 8 -5 -3 -9 -12 -16 -19 -16 -16 0 -37 25 -28 33 9 10 15 8 8
-2z m4305 -27 c0 -2 -7 -4 -15 -4 -8 0 -15 4 -15 10 0 5 7 7 15 4 8 -4 15 -8
15 -10z m-40 -14 c13 -8 13 -10 -2 -10 -9 0 -20 5 -23 10 -8 13 5 13 25 0z
m-78 -107 c-75 -221 -225 -573 -244 -573 -5 0 2 19 16 43 32 55 131 295 197
479 57 159 80 196 31 51z m-5319 57 c30 -24 27 -42 -10 -59 -23 -11 -29 -9
-52 14 l-26 26 24 20 c29 24 32 24 64 -1z m6665 -13 c4 -20 -24 -57 -43 -57
-7 0 -23 9 -36 19 -24 19 -24 19 -4 41 24 26 78 25 83 -3z m-5553 -24 c3 -16
12 -41 19 -58 19 -43 51 -130 75 -200 23 -70 58 -159 91 -230 72 -161 117
-252 128 -264 17 -18 52 -87 52 -103 0 -7 -6 -4 -12 7 -6 11 -14 22 -17 25 -7
6 -17 24 -61 110 -19 36 -40 69 -47 73 -7 4 -13 17 -13 27 0 11 -5 20 -10 20
-6 0 -9 3 -8 8 1 6 -25 65 -83 188 -10 22 -19 46 -19 53 0 6 -9 30 -20 53 -11
22 -17 45 -14 49 3 5 1 9 -4 9 -14 0 -32 48 -32 85 0 19 -3 35 -8 35 -4 0 -13
24 -20 53 -7 28 -15 63 -19 76 -4 16 -2 22 4 18 6 -4 14 -19 18 -34z m94 3
c10 -12 7 -18 -19 -31 -30 -15 -50 -13 -50 6 0 5 5 9 11 9 6 0 17 7 25 15 19
18 19 18 33 1z m4212 -25 c16 -15 14 -16 -30 -16 -43 0 -47 2 -43 21 3 17 9
20 30 16 14 -3 34 -12 43 -21z m-5043 -20 c12 -11 22 -23 22 -28 0 -5 -17 -26
-39 -47 l-38 -37 -27 31 c-27 33 -27 40 7 78 25 27 45 28 75 3z m5926 -11 c28
-34 27 -46 -14 -77 l-28 -23 -31 35 c-17 20 -31 40 -31 45 0 12 50 50 65 50 7
0 25 -14 39 -30z m-5536 -35 c5 -23 -29 -105 -43 -105 -7 0 -25 12 -39 27 -30
30 -30 65 0 111 l15 23 32 -20 c18 -11 33 -27 35 -36z m5160 -13 c11 -35 10
-39 -17 -66 -37 -37 -54 -30 -77 30 l-18 47 33 29 c30 27 34 28 50 14 10 -9
23 -33 29 -54z m-4698 39 c0 -6 -5 -13 -11 -16 -6 -4 -8 -13 -5 -21 7 -17 -39
-20 -50 -3 -4 8 0 9 15 4 15 -5 21 -2 21 9 0 9 -6 16 -12 17 -7 0 -4 4 7 9 27
12 35 12 35 1z m5326 -17 c25 -24 25 -26 8 -45 -21 -23 -36 -24 -74 -4 -36 18
-38 38 -8 59 31 22 45 20 74 -10z m-6434 -1 c25 -23 23 -28 -23 -49 l-41 -18
-19 23 c-18 22 -18 25 -3 42 21 23 61 24 86 2z m5273 7 c4 -6 11 -8 16 -5 5 4
9 1 9 -5 0 -8 -9 -10 -25 -6 -18 5 -25 2 -25 -8 0 -10 -7 -12 -22 -8 -12 3
-17 7 -10 10 6 2 12 10 12 18 0 16 36 19 45 4z m15 -40 c0 -5 -7 -10 -16 -10
-8 0 -12 5 -9 10 3 6 10 10 16 10 5 0 9 -4 9 -10z m-4133 -67 c-13 -13 -20
-13 -50 -2 -36 13 -43 31 -8 22 12 -3 25 4 37 20 l19 25 9 -25 c6 -18 4 -29
-7 -40z m4043 58 c0 -5 5 -22 11 -38 7 -20 12 -24 18 -14 10 16 31 6 31 -14 0
-8 -5 -17 -12 -21 -8 -5 -9 -2 -5 10 6 14 3 17 -9 12 -25 -10 -49 10 -52 43
-1 17 2 31 8 31 5 0 10 -4 10 -9z m-4820 -16 c17 -9 30 -20 30 -26 0 -15 -63
-89 -76 -89 -6 0 -21 11 -33 24 -20 21 -21 27 -11 48 16 30 41 58 52 58 5 0
22 -7 38 -15z m5668 -14 c17 -17 32 -34 32 -40 0 -11 -51 -61 -62 -61 -11 0
-77 73 -78 85 0 10 47 42 65 44 6 1 25 -12 43 -28z m-5273 -21 l28 -29 -17
-43 c-29 -76 -31 -77 -71 -38 -35 35 -35 37 -22 70 8 19 17 43 20 53 9 25 29
21 62 -13z m4884 -24 l25 -48 -38 -35 c-44 -41 -52 -37 -77 35 l-16 47 31 27
c17 15 35 26 41 25 5 -2 21 -25 34 -51z m-5550 25 c28 -21 24 -42 -12 -66 -31
-20 -74 -11 -83 18 -5 15 1 27 20 44 33 28 44 28 75 4z m6205 -2 c28 -22 33
-48 14 -67 -17 -17 -35 -15 -71 10 -18 13 -34 24 -37 26 -6 5 48 52 59 52 5 0
20 -9 35 -21z m-5094 -34 c0 -5 -5 -3 -10 5 -5 8 -10 20 -10 25 0 6 5 3 10 -5
5 -8 10 -19 10 -25z m3970 -34 c0 -6 5 -11 11 -11 6 0 9 -7 5 -15 -3 -9 0 -15
9 -15 8 0 15 -4 15 -10 0 -5 -11 -9 -25 -8 -14 1 -25 8 -25 14 0 7 -7 14 -15
18 -15 5 -21 47 -9 59 8 7 34 -17 34 -32z m-4000 10 c0 -11 -4 -23 -10 -26
-19 -12 -10 -33 20 -47 35 -15 41 -32 8 -23 -24 7 -90 35 -97 41 -6 5 60 74
71 74 4 0 8 -9 8 -19z m-656 -16 l30 -24 -39 -43 c-45 -50 -70 -54 -92 -16
-16 25 -15 28 10 67 31 47 50 50 91 16z m591 15 c-3 -5 -12 -10 -18 -10 -7 0
-6 4 3 10 19 12 23 12 15 0z m4780 -16 c40 -43 41 -63 7 -97 l-31 -31 -40 45
c-22 24 -40 47 -41 50 0 12 53 59 67 59 8 0 25 -12 38 -26z m-5662 -42 c16
-15 16 -16 0 -35 -10 -10 -31 -26 -47 -34 -28 -14 -30 -14 -51 14 -26 32 -25
37 17 63 32 19 51 17 81 -8z m689 1 c15 -15 28 -33 28 -41 0 -22 -42 -112 -52
-112 -6 0 -26 17 -44 37 -37 40 -37 50 -2 109 24 41 34 42 70 7z m4573 -16
c14 -24 25 -49 25 -56 0 -17 -69 -83 -79 -76 -13 8 -51 93 -51 114 0 20 45 60
67 61 7 0 24 -20 38 -43z m704 17 c17 -14 31 -30 31 -34 0 -5 -13 -18 -30 -30
l-29 -21 -41 27 c-22 15 -40 30 -40 35 0 11 50 49 66 49 7 0 26 -12 43 -26z
m-1053 -19 c14 -13 13 -15 -5 -15 -12 0 -21 6 -21 15 0 8 3 15 6 15 3 0 12 -7
20 -15z m54 -25 c0 -5 -4 -10 -9 -10 -6 0 -13 5 -16 10 -3 6 1 10 9 10 9 0 16
-4 16 -10z m-4535 -40 l29 -31 -45 -44 -44 -45 -33 29 c-17 17 -32 34 -32 38
0 15 67 83 82 83 8 0 27 -14 43 -30z m553 18 c7 -7 12 -19 12 -27 -1 -13 -2
-13 -11 2 -14 24 -38 21 -48 -5 -5 -13 -10 -17 -15 -10 -3 6 4 20 16 31 25 24
30 25 46 9z m4382 -8 c26 17 33 11 16 -14 -9 -14 -13 -32 -10 -40 4 -11 -3
-14 -30 -13 -31 1 -34 3 -24 20 5 11 8 30 5 43 -4 22 -3 23 12 10 11 -10 21
-12 31 -6z m-480 -11 c-7 -11 -14 -18 -17 -15 -8 8 5 36 17 36 7 0 7 -6 0 -21z
m642 -6 c15 -15 28 -32 28 -37 -1 -13 -46 -66 -57 -66 -9 0 -83 72 -83 81 0 9
61 49 74 49 6 0 23 -12 38 -27z m-607 7 c3 -5 1 -10 -4 -10 -6 0 -11 5 -11 10
0 6 2 10 4 10 3 0 8 -4 11 -10z m-4797 -26 c12 -8 22 -19 22 -24 0 -12 -34
-44 -66 -61 -25 -13 -28 -12 -50 16 l-23 30 26 27 c30 32 58 35 91 12z m732
-54 c10 -24 8 -36 -9 -74 -11 -25 -25 -46 -31 -46 -14 0 -69 62 -70 78 0 7 12
35 26 63 l25 51 24 -22 c13 -12 29 -35 35 -50z m3991 43 c-8 -15 -10 -15 -11
-2 0 17 10 32 18 25 2 -3 -1 -13 -7 -23z m254 -23 c14 -27 25 -55 25 -62 0
-13 -59 -78 -71 -78 -11 0 -49 88 -49 111 0 19 46 79 61 79 5 0 20 -22 34 -50z
m738 24 l38 -25 -21 -30 c-26 -36 -43 -36 -92 -3 -44 31 -46 36 -16 64 29 26
46 25 91 -6z m-4863 6 c0 -5 -4 -10 -10 -10 -5 0 -10 5 -10 10 0 6 5 10 10 10
6 0 10 -4 10 -10z m3950 0 c0 -5 -5 -10 -11 -10 -5 0 -7 5 -4 10 3 6 8 10 11
10 2 0 4 -4 4 -10z m230 -33 c0 -5 -4 -5 -10 -2 -5 3 -10 14 -10 23 0 15 2 15
10 2 5 -8 10 -19 10 -23z m-4124 -11 c10 -21 9 -23 -19 -24 -17 0 -34 -8 -39
-17 -13 -22 -26 -10 -21 18 4 21 32 43 58 46 6 0 15 -10 21 -23z m-464 -43
c15 -15 28 -32 28 -37 -1 -6 -21 -33 -45 -61 l-45 -49 -30 34 c-16 19 -29 41
-30 47 0 16 69 93 83 93 6 0 24 -12 39 -27z m133 -26 c1 -50 0 -52 -27 -52
-23 0 -26 3 -21 23 3 12 0 29 -6 36 -10 12 -8 13 8 9 13 -3 24 2 33 16 7 12
13 21 13 21 0 0 0 -24 0 -53z m4511 17 c19 7 18 -3 -2 -26 -16 -16 -16 -18 0
-24 9 -3 16 -10 16 -15 0 -6 -7 -6 -17 -1 -10 5 -22 8 -28 6 -6 -2 -10 16 -10
45 0 43 1 46 14 29 7 -11 19 -17 27 -14z m176 -1 c21 -20 38 -42 38 -49 0 -6
-15 -27 -33 -47 l-34 -35 -41 46 c-23 25 -42 50 -42 56 0 13 51 66 64 66 6 0
27 -17 48 -37z m-4362 -3 c0 -5 -4 -10 -10 -10 -5 0 -10 5 -10 10 0 6 5 10 10
10 6 0 10 -4 10 -10z m40 -13 c0 -13 -5 -28 -12 -35 -20 -20 -58 -15 -58 8 0
11 5 20 10 20 6 0 10 -5 10 -11 0 -8 5 -8 15 1 8 7 15 19 15 26 0 8 5 14 10
14 6 0 10 -10 10 -23z m3751 -3 c7 -8 21 -13 31 -11 30 8 17 -24 -14 -36 -13
-5 -18 -1 -18 13 0 11 -3 19 -7 19 -22 -4 -32 3 -27 16 8 19 18 19 35 -1z
m-4559 -11 c26 -23 23 -35 -18 -62 -28 -20 -40 -23 -61 -15 -14 5 -31 17 -37
27 -9 15 -6 22 19 43 35 28 71 31 97 7z m5444 -5 c16 -12 30 -22 32 -23 9 -6
-13 -34 -34 -44 -25 -11 -46 -5 -87 28 -16 14 -16 16 5 38 27 29 47 29 84 1z
m-178 -32 c0 -18 -7 -25 -27 -28 -25 -4 -26 -2 -17 19 6 12 18 24 26 27 8 2
16 4 16 5 1 0 2 -10 2 -23z m-5129 -12 c10 -23 10 -26 -4 -20 -9 3 -23 6 -31
6 -8 0 -14 9 -14 20 0 30 34 25 49 -6z m702 -11 c15 -40 5 -56 -26 -41 -14 6
-25 17 -25 25 0 17 10 16 32 -4 10 -9 18 -11 18 -5 0 6 -7 15 -16 20 -9 5 -14
14 -10 21 11 17 15 14 27 -16z m3719 -15 c0 -5 -4 -8 -10 -8 -5 0 -10 -4 -10
-10 0 -5 8 -10 17 -10 14 0 15 -2 4 -12 -11 -11 -14 -10 -18 0 -3 7 -17 18
-31 23 -19 7 -23 12 -14 18 7 4 12 12 11 17 -4 22 3 24 26 7 13 -10 25 -21 25
-25z m160 -40 c0 -13 -62 -68 -76 -68 -21 0 -17 29 12 90 l26 55 18 -35 c11
-19 19 -38 20 -42z m-3960 52 c0 -5 -2 -10 -4 -10 -3 0 -8 5 -11 10 -3 6 -1
10 4 10 6 0 11 -4 11 -10z m-61 -60 c32 -75 12 -96 -35 -35 -23 31 -25 39 -16
60 17 36 27 31 51 -25z m3720 -27 c-59 -109 -70 -115 -17 -11 23 48 47 88 51
88 5 0 -11 -35 -34 -77z m-3962 45 c13 -12 23 -28 23 -36 0 -17 -70 -92 -86
-92 -10 0 -54 53 -54 66 0 15 63 84 78 84 9 0 26 -10 39 -22z m138 -12 c-4
-20 -2 -43 5 -56 11 -20 10 -22 -5 -17 -9 4 -25 7 -34 7 -14 0 -17 6 -13 26 4
21 39 73 50 74 2 0 0 -15 -3 -34z m4387 -3 c45 -44 47 -61 11 -96 l-28 -26
-48 48 -48 48 26 31 c15 18 32 32 38 32 6 0 28 -17 49 -37z m-1330 -33 c-3
-52 -42 -263 -62 -341 l-10 -36 -76 -7 c-90 -7 -276 -6 -424 3 -99 6 -105 7
-108 29 -4 29 -12 28 -38 -5 -25 -32 -51 -26 -59 14 -3 15 -10 41 -15 57 -5
16 -7 32 -5 36 2 4 32 1 67 -6 87 -19 338 -18 427 1 159 33 204 78 231 228 17
89 17 89 47 85 27 -3 28 -5 25 -58z m1155 -1 c0 -22 -6 -28 -29 -31 -28 -5
-37 5 -17 18 6 3 9 21 7 39 -4 32 -3 32 17 17 13 -10 22 -27 22 -43z m-4674
23 c28 -25 20 -48 -27 -72 l-43 -23 -32 22 c-17 12 -31 27 -31 32 0 14 91 69
104 62 6 -3 19 -13 29 -21z m677 -4 c0 -15 -5 -28 -11 -28 -6 0 -9 6 -7 12 3
7 -5 20 -16 30 -21 17 -21 17 7 16 22 -2 27 -7 27 -30z m4506 2 c24 -17 44
-34 44 -37 0 -13 -44 -53 -57 -53 -21 0 -93 51 -93 66 0 14 38 54 53 54 4 0
28 -14 53 -30z m-4426 -4 c0 -2 3 -13 6 -23 6 -15 4 -16 -7 -5 -7 6 -24 12
-38 12 -21 0 -23 2 -11 10 15 10 50 14 50 6z m3639 -13 c8 -16 4 -18 -40 -18
-54 0 -65 11 -21 21 23 5 37 9 49 13 1 1 7 -7 12 -16z m-4269 -28 c0 -8 -4
-15 -10 -15 -5 0 -10 7 -10 15 0 8 5 15 10 15 6 0 10 -7 10 -15z m584 -11
c-31 -17 -34 -17 -34 -4 0 6 7 10 15 10 8 0 15 4 15 10 0 5 7 7 15 3 12 -4 10
-9 -11 -19z m1841 -24 c24 -27 13 -52 -22 -48 -21 2 -29 9 -31 27 -3 21 11 40
29 41 3 0 14 -9 24 -20z m-1755 1 c0 -13 -28 -22 -35 -11 -3 4 1 11 7 13 20 8
28 8 28 -2z m3518 -17 c33 -23 27 -34 -20 -34 -36 1 -40 3 -27 13 9 7 14 18
12 25 -6 16 8 15 35 -4z m-3828 -84 c-5 -8 -27 -33 -50 -55 l-41 -40 -29 35
c-16 19 -30 39 -30 43 0 4 21 31 47 58 l48 51 32 -38 c22 -27 29 -43 23 -54z
m285 70 c3 -5 12 -7 20 -3 8 3 15 1 15 -5 0 -5 -11 -12 -25 -14 -14 -3 -25 -4
-25 -2 0 1 -3 9 -6 18 -7 17 11 22 21 6z m3931 -22 c60 -66 60 -66 29 -98 -16
-17 -32 -30 -37 -30 -4 0 -29 20 -55 45 l-47 45 34 35 c19 19 37 35 40 35 3 0
20 -15 36 -32z m-2236 -4 c0 -19 -28 -30 -41 -17 -7 7 -5 16 6 27 18 18 35 13
35 -10z m169 7 c12 -21 5 -31 -20 -31 -16 0 -29 19 -29 41 0 17 39 9 49 -10z
m-2511 -7 c33 -23 27 -46 -23 -77 l-45 -29 -32 32 c-31 32 -31 33 -12 47 18
14 73 42 84 43 3 0 16 -7 28 -16z m4078 -33 c-35 -55 -42 -52 -9 4 15 24 29
42 31 40 2 -1 -8 -22 -22 -44z m858 22 l39 -26 -21 -18 c-12 -9 -22 -22 -22
-28 0 -21 -45 -10 -79 19 l-35 30 24 25 c30 32 46 31 94 -2z m-4469 -33 c0
-27 -1 -28 -12 -13 -17 22 -16 43 0 43 8 0 13 -12 12 -30z m1981 -6 c9 -36
-15 -58 -54 -49 -59 13 -48 75 13 75 29 0 36 -4 41 -26z m1689 16 c3 -5 4 -10
1 -10 -2 0 -12 -3 -20 -6 -12 -5 -15 -2 -10 10 7 18 20 21 29 6z m265 -17 c0
-29 -2 -29 -19 5 -10 18 -9 22 4 22 10 0 15 -9 15 -27z m-3706 1 c9 -3 16 -14
16 -23 -1 -14 -2 -14 -11 1 -15 27 -42 11 -35 -21 6 -26 6 -26 -10 3 -13 24
-14 30 -2 37 16 10 22 11 42 3z m1626 -9 c18 -22 3 -57 -23 -53 -25 3 -34 32
-17 53 16 19 24 19 40 0z m206 7 c7 -4 14 -18 15 -32 4 -22 0 -25 -28 -28 -31
-3 -33 -1 -33 27 0 25 9 37 30 40 3 0 10 -3 16 -7z m1641 -27 c-14 -15 -28 0
-20 22 4 10 9 11 19 2 10 -8 11 -14 1 -24z m-4027 11 c0 -9 -9 -14 -20 -13
-22 1 -27 13 -7 20 21 9 27 7 27 -7z m516 -83 c-5 -5 -46 71 -46 84 0 4 12
-12 25 -36 14 -24 23 -46 21 -48z m110 27 c8 0 14 -5 14 -11 0 -6 -8 -8 -20
-4 -20 6 -80 -19 -80 -35 0 -5 5 -12 10 -15 6 -3 10 -10 10 -16 0 -16 -15 -10
-29 12 -12 20 -9 25 31 63 35 33 44 38 46 24 2 -10 10 -18 18 -18z m3324 27
c0 -7 16 -21 36 -32 30 -16 37 -17 45 -4 7 11 9 9 9 -7 0 -17 -6 -21 -27 -20
-16 1 -39 8 -52 15 -12 7 -32 11 -42 8 -10 -3 -17 -1 -13 4 3 5 12 9 20 9 11
0 13 6 9 20 -4 11 -2 20 4 20 6 0 11 -6 11 -13z m110 -7 c0 -5 -5 -10 -11 -10
-5 0 -7 5 -4 10 3 6 8 10 11 10 2 0 4 -4 4 -10z m-1746 -36 c3 -9 6 -27 6 -40
0 -24 -3 -25 -52 -22 -47 3 -53 6 -56 26 -6 41 4 52 52 52 31 0 46 -5 50 -16z
m-2319 -24 c14 -28 14 -30 -12 -55 -33 -30 -75 -44 -81 -26 -2 7 -13 21 -24
31 -25 23 -18 35 35 60 56 26 64 25 82 -10z m344 1 c12 -16 21 -33 21 -37 0
-16 -74 -84 -92 -84 -16 0 -58 36 -58 50 0 14 82 100 95 100 8 0 23 -13 34
-29z m1836 9 c9 -29 -4 -60 -25 -60 -47 0 -61 21 -40 61 14 26 57 25 65 -1z
m245 6 c6 -8 10 -25 8 -38 -2 -17 -10 -24 -34 -26 -41 -4 -61 19 -46 53 13 28
52 34 72 11z m1903 -46 c20 -23 37 -45 37 -49 0 -4 -10 -17 -23 -29 l-23 -21
-34 20 c-40 24 -80 59 -80 70 0 4 12 21 26 38 30 36 41 33 97 -29z m340 28
l62 -32 -32 -9 c-17 -5 -34 -18 -36 -28 -3 -11 -9 -19 -14 -19 -16 0 -74 40
-79 55 -6 14 20 65 32 65 2 0 33 -14 67 -32z m-708 -8 c3 -6 -1 -7 -9 -4 -18
7 -21 14 -7 14 6 0 13 -4 16 -10z m65 0 c0 -5 -5 -10 -11 -10 -5 0 -7 5 -4 10
3 6 8 10 11 10 2 0 4 -4 4 -10z m-111 -30 c-6 -4 -8 -13 -4 -20 6 -9 9 -9 16
1 4 7 10 11 13 8 3 -2 1 -11 -4 -19 -8 -13 -13 -11 -32 8 -12 12 -17 22 -11
22 8 0 10 7 6 18 -6 15 -5 15 11 3 12 -10 14 -16 5 -21z m-3249 11 c0 -6 -9
-9 -19 -8 -11 0 -17 5 -15 9 7 11 34 10 34 -1z m-35 -31 c3 -5 2 -10 -4 -10
-5 0 -13 5 -16 10 -3 6 -2 10 4 10 5 0 13 -4 16 -10z m-505 -10 c0 -5 -2 -10
-4 -10 -3 0 -8 5 -11 10 -3 6 -1 10 4 10 6 0 11 -4 11 -10z m460 -10 c0 -5 -2
-10 -4 -10 -3 0 -8 5 -11 10 -3 6 -1 10 4 10 6 0 11 -4 11 -10z m1578 -2 c7
-7 12 -25 12 -40 0 -29 -27 -44 -67 -36 -22 4 -30 52 -12 74 14 17 51 18 67 2z
m162 -2 c23 -28 8 -60 -33 -69 -56 -14 -87 -3 -87 31 0 15 5 33 12 40 17 17
93 15 108 -2z m118 2 c7 -7 12 -25 12 -40 0 -21 -6 -29 -26 -34 -52 -13 -86
22 -68 70 7 19 64 22 82 4z m-1741 -23 c-4 -8 -14 -15 -23 -15 -16 0 -16 2 2
19 21 21 29 19 21 -4z m1303 -27 c14 -31 20 -66 20 -120 0 -85 -8 -94 -51 -59
-23 18 -23 18 -9 120 7 55 15 101 17 101 2 0 13 -19 23 -42z m-1383 -3 c6 -14
8 -25 4 -25 -4 0 -13 11 -19 25 -6 14 -8 25 -4 25 4 0 12 -11 19 -25z m1955
-62 c9 -48 14 -92 12 -98 -4 -10 -51 -35 -66 -35 -15 0 -9 150 8 186 9 19 19
34 23 34 4 0 14 -39 23 -87z m1258 77 c0 -5 -5 -10 -11 -10 -5 0 -7 5 -4 10 3
6 8 10 11 10 2 0 4 -4 4 -10z m-3343 -84 c16 -32 19 -46 10 -55 -16 -16 -36
-14 -64 9 -14 11 -32 20 -39 20 -8 0 -14 3 -14 7 0 15 63 71 74 67 7 -3 22
-24 33 -48z m3698 -1 c17 -14 18 -17 5 -25 -8 -5 -21 -10 -28 -10 -7 0 -27 -7
-44 -16 -27 -14 -32 -14 -46 -1 -13 14 -12 18 5 44 11 15 23 36 26 46 7 20 8
20 82 -38z m-2038 27 c12 -8 16 -24 14 -64 -1 -25 -5 -28 -35 -28 -54 0 -66 8
-66 46 0 44 49 71 87 46z m171 -14 c18 -18 15 -75 -4 -82 -25 -9 -83 -7 -105
4 -21 12 -25 41 -9 71 8 15 21 19 58 19 27 0 53 -5 60 -12z m142 -9 c19 -34 9
-64 -24 -67 -55 -7 -76 5 -76 42 0 42 5 46 51 46 28 0 41 -5 49 -21z m-305
-101 c2 -2 6 -15 10 -29 9 -37 -16 -60 -58 -53 -53 9 -57 12 -57 42 0 40 18
55 63 49 21 -3 40 -7 42 -9z m311 4 c15 -9 21 -53 11 -69 -5 -7 -28 -13 -52
-13 -48 0 -71 22 -58 57 9 25 23 33 58 33 17 0 35 -4 41 -8z m1281 2 c-3 -3
-12 -4 -19 -1 -8 3 -5 6 6 6 11 1 17 -2 13 -5z m-1422 -15 c2 -3 8 -20 11 -37
6 -28 3 -33 -22 -42 -15 -6 -48 -10 -73 -8 -40 3 -46 6 -49 27 -2 12 -1 34 3
48 6 24 9 25 65 21 33 -2 62 -7 65 -9z m-340 -53 c43 -33 103 -107 144 -179
32 -56 89 -240 121 -392 11 -49 23 -101 26 -114 7 -23 6 -24 -34 -18 -48 8
-119 39 -148 64 -65 57 -96 154 -109 338 -8 130 -20 182 -51 222 -33 43 -73
63 -126 63 l-42 0 21 21 c44 44 137 41 198 -5z m729 21 c48 -26 45 -43 -6 -39
-49 5 -102 -28 -128 -78 -18 -36 -31 -114 -45 -284 -13 -152 -62 -247 -149
-291 -59 -29 -68 -25 -92 47 -23 71 -14 169 26 283 58 164 128 269 229 345 63
47 105 52 165 17z m981 -48 c11 -17 -1 -21 -15 -4 -8 9 -8 15 -2 15 6 0 14 -5
17 -11z m-1541 -57 c11 -39 0 -55 -20 -27 -8 11 -21 28 -29 38 -21 24 -19 29
12 25 21 -2 29 -10 37 -36z m276 31 c0 -5 -14 -26 -30 -47 -24 -31 -31 -36
-36 -22 -11 28 15 76 42 76 13 0 24 -3 24 -7z m-106 -19 c20 -19 21 -68 2 -83
-18 -15 -136 -4 -137 13 0 6 -2 18 -3 26 -2 8 0 25 5 38 7 19 15 22 63 22 36
0 60 -5 70 -16z m2 -127 c2 -7 -2 -30 -9 -52 -16 -45 -40 -55 -88 -35 -21 9
-30 21 -35 45 -3 19 -3 38 1 44 9 16 124 14 131 -2z m-43 -123 c5 -5 -1 -28
-20 -84 -3 -9 -11 3 -19 29 -7 25 -11 48 -8 53 6 9 38 11 47 2z m-63 -410 c44
-17 65 -17 115 1 21 8 41 13 42 11 2 -2 -1 -15 -8 -29 -34 -76 -219 -55 -219
25 0 15 4 18 18 13 9 -4 33 -14 52 -21z m360 -129 c0 -2 -18 -14 -40 -25 -48
-25 -53 -18 -7 10 32 20 47 25 47 15z m-635 -25 c3 -5 -3 -10 -15 -10 -12 0
-18 5 -15 10 3 6 10 10 15 10 5 0 12 -4 15 -10z m541 -28 c-3 -5 -52 -33 -111
-62 -84 -43 -107 -51 -118 -41 -10 10 -9 11 4 6 10 -4 58 16 120 49 111 60
113 60 105 48z m113 -31 c-1 -13 -2 -13 -6 2 -2 9 -11 17 -19 17 -8 0 -12 5
-9 10 9 15 35 -8 34 -29z m-425 -30 c-2 -3 -12 3 -22 13 -16 17 -16 18 5 5 12
-7 20 -15 17 -18z m336 15 c0 -3 -4 -8 -10 -11 -5 -3 -10 -1 -10 4 0 6 5 11
10 11 6 0 10 -2 10 -4z m-397 -57 c-5 -18 -7 -17 -19 7 -20 37 -17 50 5 30 11
-10 17 -25 14 -37z m332 21 c0 -33 -9 -39 -19 -14 -4 9 -1 23 5 30 15 18 14
19 14 -16z m142 8 c-3 -8 -6 -5 -6 6 -1 11 2 17 5 13 3 -3 4 -12 1 -19z m-372
-6 c-3 -3 -11 0 -18 7 -9 10 -8 11 6 5 10 -3 15 -9 12 -12z m435 -7 c0 -2 -10
-9 -22 -15 -22 -11 -22 -10 -4 4 21 17 26 19 26 11z m-250 -24 c0 -6 -4 -13
-10 -16 -5 -3 -10 1 -10 9 0 9 5 16 10 16 6 0 10 -4 10 -9z m-425 -19 c-3 -3
-11 0 -18 7 -9 10 -8 11 6 5 10 -3 15 -9 12 -12z m590 -7 c-22 -14 -44 -25
-49 -25 -13 0 -3 9 36 30 49 28 60 23 13 -5z m-380 5 c-27 -12 -35 -12 -35 0
0 6 12 10 28 9 24 0 25 -1 7 -9z m172 -6 c-3 -3 -12 -4 -19 -1 -8 3 -5 6 6 6
11 1 17 -2 13 -5z m143 -32 c0 -5 -17 -16 -37 -26 -41 -19 -39 -13 4 15 34 21
33 21 33 11z m-315 -80 c-3 -3 -11 0 -18 7 -9 10 -8 11 6 5 10 -3 15 -9 12
-12z m185 8 c0 -5 -5 -10 -11 -10 -5 0 -7 5 -4 10 3 6 8 10 11 10 2 0 4 -4 4
-10z"/>
<path d="M5878 5743 c-43 -2 -78 -8 -78 -13 0 -5 5 -20 11 -33 8 -19 17 -23
39 -21 20 2 32 -3 43 -19 12 -19 22 -22 60 -19 46 4 46 4 53 47 7 51 1 66 -29
63 -12 -1 -57 -4 -99 -5z"/>
<path d="M4001 5468 c0 -90 3 -157 6 -150 7 18 20 14 26 -9 l6 -20 20 20 c18
18 62 26 107 20 4 0 11 5 15 13 7 10 9 8 11 -7 1 -11 5 45 8 125 3 80 4 150 2
156 -2 8 -39 12 -103 13 l-99 2 1 -163z"/>
<path d="M4968 5825 c-5 -5 -8 -185 -8 -401 l0 -394 28 -7 c15 -5 83 -8 152
-8 108 0 132 3 173 22 83 38 124 78 161 156 64 132 73 311 24 419 -65 139
-188 205 -403 215 -66 3 -123 2 -127 -2z"/>
<path d="M5538 5734 c-3 -3 -20 -6 -37 -6 -17 -1 -31 -2 -31 -4 0 -1 16 -29
35 -61 38 -65 54 -124 55 -200 0 -40 4 -53 15 -53 8 0 15 -4 15 -10 0 -5 6 -7
13 -4 16 6 69 -13 78 -27 3 -5 21 -11 40 -12 33 -3 34 -2 37 37 1 22 -2 42 -8
46 -8 5 -8 14 1 32 22 49 -44 201 -110 256 -15 12 -93 17 -103 6z"/>
<path d="M4773 5693 l-33 -4 0 -185 c0 -121 3 -183 10 -179 6 3 10 14 11 23 0
13 2 13 9 -4 12 -30 104 -34 122 -4 19 31 28 24 30 -22 1 -24 5 47 8 157 3
110 3 206 1 213 -3 12 -81 14 -158 5z"/>
<path d="M5732 5300 c0 -14 2 -19 5 -12 2 6 2 18 0 25 -3 6 -5 1 -5 -13z"/>
<path d="M6946 4987 c3 -10 9 -15 12 -12 3 3 0 11 -7 18 -10 9 -11 8 -5 -6z"/>
<path d="M2940 4989 c0 -5 5 -7 10 -4 6 3 10 8 10 11 0 2 -4 4 -10 4 -5 0 -10
-5 -10 -11z"/>
<path d="M2915 4960 c-3 -5 -1 -10 4 -10 6 0 11 5 11 10 0 6 -2 10 -4 10 -3 0
-8 -4 -11 -10z"/>
<path d="M4740 3361 c0 -20 34 -68 65 -91 27 -21 115 -53 122 -46 10 10 -27
117 -38 111 -5 -4 -9 1 -9 10 0 14 -9 16 -49 13 -36 -2 -47 0 -44 10 3 6 1 12
-5 12 -6 0 -13 -6 -15 -12 -4 -10 -6 -10 -6 0 -1 20 -21 14 -21 -7z"/>
<path d="M5118 3390 c-1 -5 -16 -10 -33 -11 -41 -2 -75 -19 -75 -38 0 -11 -3
-10 -15 5 -13 17 -14 16 -8 -21 10 -64 20 -85 44 -85 29 0 119 90 119 120 0
18 -3 20 -14 11 -12 -10 -13 -8 -9 8 5 21 -2 30 -9 11z"/>
<path d="M4915 3130 c28 -12 73 -12 80 0 4 6 -14 10 -47 9 -39 0 -48 -3 -33
-9z"/>
<path d="M1586 5488 c-27 -15 -20 -64 13 -87 50 -36 93 -21 105 35 5 21 2 34
-7 43 -19 15 -90 21 -111 9z m93 -22 c14 -16 1 -51 -21 -58 -35 -12 -85 42
-61 65 12 13 70 7 82 -7z"/>
<path d="M1737 5493 c-4 -3 -7 -26 -7 -50 0 -43 1 -45 46 -65 41 -17 48 -18
61 -5 8 8 17 32 20 54 5 38 3 41 -30 56 -36 17 -79 22 -90 10z m84 -23 c20
-11 25 -45 10 -69 -18 -29 -81 13 -81 55 0 19 5 24 26 24 14 0 34 -5 45 -10z"/>
<path d="M8090 5487 c-19 -10 -26 -21 -28 -52 -2 -23 3 -48 11 -59 13 -18 15
-17 65 4 49 21 52 24 52 59 0 20 -5 42 -12 49 -16 16 -56 15 -88 -1z m80 -30
c0 -28 -25 -53 -62 -62 -26 -7 -28 -5 -28 23 0 39 23 62 61 62 24 0 29 -4 29
-23z"/>
<path d="M7954 5451 c-23 -10 -44 -26 -47 -34 -9 -24 27 -137 43 -137 4 0 29
16 55 36 46 35 47 38 41 77 -8 48 -23 77 -39 77 -7 0 -30 -9 -53 -19z m60 -17
c13 -34 5 -71 -19 -94 -29 -28 -50 -17 -61 33 -5 26 -2 34 22 54 34 27 50 29
58 7z"/>
<path d="M1881 5437 c-9 -23 -14 -61 -12 -84 1 -16 71 -63 94 -63 19 0 36 34
44 92 5 34 3 37 -35 57 -54 27 -80 27 -91 -2z m77 -13 c23 -16 29 -57 13 -82
-23 -36 -89 26 -77 72 7 30 31 34 64 10z"/>
<path d="M1498 5409 c-23 -13 -23 -36 2 -77 27 -43 43 -48 80 -22 38 27 38 51
-1 84 -33 28 -53 32 -81 15z m71 -33 c25 -27 22 -41 -9 -49 -32 -8 -75 45 -53
66 13 14 40 6 62 -17z"/>
<path d="M2026 5368 c-8 -18 -17 -47 -20 -65 -7 -29 -3 -35 44 -72 29 -23 56
-41 60 -41 11 0 50 104 50 135 0 18 -11 31 -43 50 -58 33 -75 32 -91 -7z m82
-14 c26 -18 28 -44 7 -84 -19 -37 -24 -37 -58 -2 -30 31 -32 39 -17 76 11 30
35 33 68 10z"/>
<path d="M7815 5390 c-41 -17 -65 -49 -59 -78 7 -36 46 -122 54 -122 4 0 29
16 55 36 46 36 47 38 42 79 -12 87 -36 109 -92 85z m65 -82 c0 -29 -31 -67
-57 -68 -6 0 -18 20 -26 44 -16 48 -11 63 28 84 16 9 23 8 38 -9 9 -12 17 -35
17 -51z"/>
<path d="M8163 5371 c-67 -26 -70 -34 -39 -80 15 -22 33 -42 40 -44 17 -7 86
58 86 80 0 20 -8 33 -30 49 -11 9 -25 8 -57 -5z m57 -16 c11 -13 9 -20 -10
-40 -26 -27 -49 -32 -68 -13 -22 22 -13 45 21 56 44 14 43 14 57 -3z"/>
<path d="M1682 5368 c-21 -21 -13 -53 21 -86 18 -18 38 -32 44 -32 18 0 66 68
60 84 -7 18 -63 46 -92 46 -11 0 -26 -5 -33 -12z m66 -9 c39 -13 46 -32 21
-55 -16 -15 -23 -15 -44 -4 -29 16 -39 38 -24 56 14 17 9 16 47 3z"/>
<path d="M7680 5318 c-35 -13 -80 -58 -80 -80 0 -29 51 -148 64 -148 28 0 118
82 111 103 -41 131 -49 142 -95 125z m50 -76 c14 -41 14 -42 -15 -72 -16 -16
-33 -30 -37 -30 -5 0 -18 21 -30 47 l-21 47 32 28 c18 16 38 27 44 25 7 -2 19
-22 27 -45z"/>
<path d="M2183 5308 c-15 -20 -41 -124 -34 -136 13 -21 84 -72 102 -72 12 0
25 20 44 70 29 77 28 86 -25 125 -37 27 -72 32 -87 13z m71 -42 c29 -22 30
-25 18 -63 -18 -61 -36 -71 -67 -37 -29 31 -30 42 -11 89 18 41 22 42 60 11z"/>
<path d="M8036 5310 c-16 -5 -39 -19 -52 -31 -27 -25 -22 -41 32 -99 33 -35
34 -35 61 -18 16 9 36 27 47 41 15 21 16 28 6 48 -14 28 -51 69 -59 68 -3 0
-19 -5 -35 -9z m60 -47 c7 -28 -2 -50 -29 -67 -12 -8 -22 -5 -42 14 -43 41
-26 79 37 80 22 0 29 -6 34 -27z"/>
<path d="M1806 5277 c-15 -19 -26 -39 -26 -45 0 -14 71 -82 86 -82 17 0 73 66
80 94 5 21 0 28 -28 46 -49 30 -82 26 -112 -13z m89 1 c33 -15 32 -28 -5 -63
-29 -28 -30 -28 -50 -10 -20 18 -25 41 -14 69 7 19 33 20 69 4z"/>
<path d="M1678 4533 c-55 -5 -66 -23 -14 -23 51 0 202 -47 276 -86 125 -66
260 -184 308 -271 9 -16 17 -16 103 -2 l93 14 -90 94 c-111 117 -195 181 -287
219 -126 53 -230 67 -389 55z"/>
<path d="M7990 4521 c-168 -36 -290 -113 -432 -273 l-72 -83 93 -8 c91 -8 94
-8 109 15 34 52 172 177 243 221 88 54 207 101 306 119 l68 12 -45 7 c-76 13
-181 8 -270 -10z"/>
</g>
</svg>
